<svg id="Layer_1" data-name="Layer 1" xmlns="http://www.w3.org/2000/svg" viewBox="0 0 550 90"><defs><style>.cls-1{fill:#355c7d;}.cls-2{fill:#f67280;stroke:#000;stroke-miterlimit:10;}</style></defs><path class="cls-1" d="M118.14,30.87v4.8h-9.43V59.18h-6V35.67H93.14v-4.8Z"/><path class="cls-1" d="M124.76,59.18,135,30.87h7.11l10.27,28.31h-6.13l-2.31-7H133l-2.32,7Zm12.42-19.37-2.82,8.11h7.95L139.66,40l-1.32-4.31h.16Z"/><path class="cls-1" d="M188.5,51.23A10.19,10.19,0,0,1,184,57.36a14,14,0,0,1-7.45,2,14.5,14.5,0,0,1-7.29-1.82,12.69,12.69,0,0,1-4.8-5,16.33,16.33,0,0,1-1.65-7.78A16.33,16.33,0,0,1,164.49,37a12.25,12.25,0,0,1,4.64-5,14.18,14.18,0,0,1,7.12-1.82A15.53,15.53,0,0,1,183.7,32a9,9,0,0,1,4.3,5.46l-5.3,2.32a6.49,6.49,0,0,0-2.15-3.64A6.93,6.93,0,0,0,176.74,35a7.2,7.2,0,0,0-5.63,2.48A11.61,11.61,0,0,0,169,44.78a11.85,11.85,0,0,0,2,7.28,6.7,6.7,0,0,0,5.63,2.49,5.8,5.8,0,0,0,4-1.33,6,6,0,0,0,2.32-3.81Z"/><path class="cls-1" d="M208,30.87V44.28l11.59-13.41h6.79l-10.1,11.59,10.43,16.72H220L212,46.27l-4,4.63v8.45h-6V31h6Z"/><path class="cls-1" d="M245.77,54.38h14.9v4.8H239.82V30.87h6Z"/><path class="cls-1" d="M274.25,59.18V30.87h21.19v4.8H280v7.12h12.09v4.47H280v7.29h15.89v4.8l-21.68-.17Z"/><path class="cls-1" d="M309.84,59.18V30.87h12.42c3.47,0,6,.66,7.61,2a6.92,6.92,0,0,1,2.48,5.63,6.71,6.71,0,0,1-1.32,4,5.91,5.91,0,0,1-4,2.15h0a7.22,7.22,0,0,1,4.47,2.15,6.64,6.64,0,0,1,1.65,4.31,6.44,6.44,0,0,1-2.65,5.63c-1.82,1.32-4.3,2-7.78,2l-12.91.5Zm5.79-16.55h6c3.15,0,4.64-1.16,4.64-3.65s-1.49-3.64-4.64-3.64h-6Zm0,12.08h6.63a5.12,5.12,0,0,0,3.47-1,3.21,3.21,0,0,0,1.16-2.82,2.9,2.9,0,0,0-1.16-2.65,5.43,5.43,0,0,0-3.47-1h-6.63Z"/><path class="cls-1" d="M359.5,30.38a14.4,14.4,0,0,1,7.29,1.82,11.23,11.23,0,0,1,4.63,5,16.36,16.36,0,0,1,1.66,7.78,16.33,16.33,0,0,1-1.66,7.78,12.24,12.24,0,0,1-4.63,5,15.49,15.49,0,0,1-14.57,0,12.56,12.56,0,0,1-4.8-5,16.33,16.33,0,0,1-1.66-7.78,16.36,16.36,0,0,1,1.66-7.78,11.61,11.61,0,0,1,4.8-5A14.83,14.83,0,0,1,359.5,30.38Zm0,4.8a6.72,6.72,0,0,0-5.63,2.48c-1.32,1.66-2,4.14-2,7.28s.66,5.63,2,7.29a6.75,6.75,0,0,0,5.63,2.48A6.64,6.64,0,0,0,365,52.23c1.32-1.66,2-4.14,2-7.29s-.66-5.62-2-7.28A6.2,6.2,0,0,0,359.5,35.18Z"/><path class="cls-1" d="M409,59.18h-6.95l-6.13-10.1-6.12,10.1H383l9.77-14.24-9.11-14.07h6.95l5.63,9.6,5.8-9.6h6.45l-9.1,13.74Z"/><rect class="cls-2" x="11.23" y="14.31" width="59.99" height="63.2"/><path class="cls-1" d="M61.88,65.53a1.83,1.83,0,1,0,1.83,1.83A1.83,1.83,0,0,0,61.88,65.53Z"/><path class="cls-1" d="M71,7.69H9a6.46,6.46,0,0,0-6.44,6.43V76.26A6.46,6.46,0,0,0,9,82.69H71.09a6.46,6.46,0,0,0,6.43-6.43V14.12A6.47,6.47,0,0,0,71,7.69ZM50,41a10.68,10.68,0,0,0-1,4.36V58.22a16.4,16.4,0,0,1-32.8,0V28.76A5.42,5.42,0,0,1,13,25.41a5.49,5.49,0,1,1,7,3.35V58.22a12.75,12.75,0,0,0,25.49,0V50.46a1.15,1.15,0,0,0-1.2-1.14.61.61,0,0,0-.32.06l-4,1.08,10.6-10.6ZM63.71,72.47a5.48,5.48,0,1,1-3.66-10.34V32.73a12.74,12.74,0,1,0-25.48,0v7.76a1.15,1.15,0,0,0,1.19,1.14.54.54,0,0,0,.32-.07l3.91-1-10.6,10.6L29.9,50a10.62,10.62,0,0,0,.94-4.35V32.73a16.4,16.4,0,0,1,32.8,0V62.19A5.51,5.51,0,0,1,67,65.53,5.41,5.41,0,0,1,63.71,72.47Z"/><path class="cls-1" d="M18.1,21.76a1.83,1.83,0,1,0,1.83,1.83A1.83,1.83,0,0,0,18.1,21.76Z"/></svg>